<svg width="177" height="294" viewBox="0 0 177 294" fill="none" xmlns="http://www.w3.org/2000/svg">
<rect x="122" y="242" width="64" height="100" transform="rotate(-180 122 242)" fill="#D9D9D9"/>
<rect x="176.5" y="294" width="10" height="236" transform="rotate(-180 176.5 294)" fill="black"/>
<rect x="0.5" y="294" width="10" height="176" transform="rotate(-90 0.5 294)" fill="black"/>
<rect x="48.5" y="68" width="10" height="80" transform="rotate(-90 48.5 68)" fill="black"/>
<rect x="128.5" y="242" width="10" height="184" transform="rotate(-180 128.5 242)" fill="black"/>
<path d="M166.5 61L176.5 58L118 2.51516e-06L106 1.46609e-06L166.5 61Z" fill="black"/>
<rect width="10" height="236" transform="matrix(1 8.74228e-08 8.74228e-08 -1 0 294)" fill="black"/>
<path d="M10 61L3.07798e-05 58L58.5 1.27436e-05L70.5 1.37927e-05L10 61Z" fill="black"/>
<rect width="10" height="184" transform="matrix(1 8.74228e-08 8.74228e-08 -1 48.5 242)" fill="black"/>
<rect x="167" y="284" width="157" height="42" transform="rotate(-180 167 284)" fill="#D9D9D9"/>
</svg>
