<svg width="800" height="500" viewBox="0 0 800 500" fill="none" xmlns="http://www.w3.org/2000/svg">
<circle cx="120" cy="403" r="32" fill="#DC3220"/>
<circle cx="120" cy="403" r="32" stroke="white"/>
<circle cx="184" cy="138" r="32" fill="#DC3220"/>
<circle cx="184" cy="138" r="32" stroke="white"/>
<circle cx="624" cy="391" r="32" fill="#DC3220"/>
<circle cx="624" cy="391" r="32" stroke="white"/>
<circle cx="347" cy="233" r="32" fill="#DC3220"/>
<circle cx="347" cy="233" r="32" stroke="white"/>
<circle cx="569" cy="187" r="32" fill="#DC3220"/>
<circle cx="569" cy="187" r="32" stroke="white"/>
<circle cx="458" cy="319" r="32" fill="#005AB5"/>
<circle cx="458" cy="319" r="32" stroke="#1D1D1D"/>
<circle cx="514" cy="97" r="32" fill="#005AB5"/>
<circle cx="514" cy="97" r="32" stroke="#1D1D1D"/>
<circle cx="715" cy="359" r="32" fill="#005AB5"/>
<circle cx="715" cy="359" r="32" stroke="#1D1D1D"/>
<circle cx="271" cy="359" r="32" fill="#005AB5"/>
<circle cx="271" cy="359" r="32" stroke="#1D1D1D"/>
<rect opacity="0.1" x="54.5" y="19.5" width="342" height="461" rx="13.5" stroke="#DC3220" stroke-width="5" stroke-dasharray="10 10"/>
<rect x="54.5" y="19.5" width="171" height="461" rx="13.5" stroke="#DC3220" stroke-width="5" stroke-dasharray="10 10"/>
</svg>
