<svg width="800" height="500" viewBox="0 0 800 500" fill="none" xmlns="http://www.w3.org/2000/svg">
<rect x="72" y="173" width="47" height="149" rx="8" fill="#785EF0"/>
<rect x="171" y="173" width="47" height="149" rx="8" fill="#DC267F"/>
<path d="M37 337H254" stroke="#E4E4E4" stroke-width="4" stroke-linecap="round"/>
<path d="M53.6722 371V356.455H58.8569C59.9885 356.455 60.926 356.661 61.6694 357.072C62.4128 357.484 62.9691 358.048 63.3384 358.763C63.7077 359.473 63.8924 360.273 63.8924 361.163C63.8924 362.058 63.7054 362.863 63.3313 363.578C62.962 364.288 62.4033 364.852 61.6552 365.268C60.9118 365.68 59.9767 365.886 58.8498 365.886H55.2844V364.026H58.6509C59.3659 364.026 59.9459 363.902 60.391 363.656C60.8361 363.405 61.1628 363.064 61.3711 362.634C61.5794 362.203 61.6836 361.713 61.6836 361.163C61.6836 360.614 61.5794 360.126 61.3711 359.7C61.1628 359.274 60.8337 358.94 60.3839 358.699C59.9388 358.457 59.3517 358.337 58.6225 358.337H55.8668V371H53.6722ZM66.2947 371V360.091H68.3473V361.824H68.4609C68.6598 361.237 69.0102 360.775 69.5121 360.439C70.0187 360.098 70.5916 359.928 71.2308 359.928C71.3634 359.928 71.5196 359.932 71.6996 359.942C71.8842 359.951 72.0286 359.963 72.1328 359.977V362.009C72.0476 361.985 71.8961 361.959 71.6783 361.93C71.4605 361.897 71.2427 361.881 71.0249 361.881C70.523 361.881 70.0755 361.987 69.6825 362.2C69.2943 362.409 68.9865 362.7 68.7592 363.074C68.532 363.443 68.4183 363.865 68.4183 364.338V371H66.2947ZM78.2816 371.22C77.2068 371.22 76.2811 370.991 75.5046 370.531C74.7328 370.067 74.1362 369.416 73.7148 368.578C73.2982 367.735 73.0898 366.748 73.0898 365.616C73.0898 364.499 73.2982 363.514 73.7148 362.662C74.1362 361.81 74.7234 361.144 75.4762 360.666C76.2338 360.188 77.1192 359.949 78.1325 359.949C78.748 359.949 79.3446 360.051 79.9222 360.254C80.4999 360.458 81.0183 360.777 81.4776 361.213C81.9369 361.649 82.2991 362.214 82.5643 362.911C82.8294 363.602 82.962 364.442 82.962 365.432V366.185H74.2901V364.594H80.881C80.881 364.035 80.7674 363.54 80.5401 363.109C80.3129 362.674 79.9933 362.33 79.5813 362.08C79.1741 361.829 78.6959 361.703 78.1467 361.703C77.5501 361.703 77.0292 361.85 76.5842 362.143C76.1438 362.432 75.8029 362.811 75.5614 363.28C75.3247 363.744 75.2063 364.248 75.2063 364.793V366.036C75.2063 366.765 75.3342 367.385 75.5898 367.896C75.8503 368.408 76.2125 368.798 76.6765 369.068C77.1405 369.333 77.6826 369.466 78.3029 369.466C78.7054 369.466 79.0723 369.409 79.4038 369.295C79.7352 369.177 80.0217 369.002 80.2631 368.77C80.5046 368.538 80.6893 368.251 80.8171 367.911L82.8271 368.273C82.6661 368.865 82.3772 369.383 81.9606 369.828C81.5487 370.268 81.0302 370.612 80.4052 370.858C79.7849 371.099 79.0771 371.22 78.2816 371.22ZM89.9134 371.22C88.8575 371.22 87.9484 370.981 87.1861 370.503C86.4285 370.02 85.8461 369.355 85.4389 368.507C85.0317 367.66 84.8281 366.689 84.8281 365.595C84.8281 364.487 85.0365 363.509 85.4531 362.662C85.8698 361.81 86.4569 361.144 87.2145 360.666C87.9721 360.188 88.8646 359.949 89.892 359.949C90.7206 359.949 91.4593 360.103 92.108 360.411C92.7566 360.714 93.2798 361.14 93.6776 361.689C94.08 362.238 94.3191 362.88 94.3949 363.614H92.3281C92.2145 363.102 91.9541 362.662 91.5469 362.293C91.1444 361.923 90.6046 361.739 89.9276 361.739C89.3357 361.739 88.8172 361.895 88.3722 362.207C87.9318 362.515 87.5885 362.955 87.3423 363.528C87.0961 364.097 86.973 364.769 86.973 365.545C86.973 366.341 87.0938 367.027 87.3352 367.605C87.5767 368.183 87.9176 368.63 88.358 368.947C88.803 369.265 89.3262 369.423 89.9276 369.423C90.33 369.423 90.6946 369.35 91.0213 369.203C91.3527 369.052 91.6297 368.836 91.8523 368.557C92.0795 368.277 92.2382 367.941 92.3281 367.548H94.3949C94.3191 368.254 94.0895 368.884 93.706 369.438C93.3224 369.991 92.8087 370.427 92.1648 370.744C91.5256 371.062 90.7751 371.22 89.9134 371.22ZM96.6658 371V360.091H98.7894V371H96.6658ZM97.7383 358.408C97.369 358.408 97.0517 358.285 96.7866 358.038C96.5262 357.787 96.396 357.489 96.396 357.143C96.396 356.793 96.5262 356.495 96.7866 356.249C97.0517 355.998 97.369 355.872 97.7383 355.872C98.1076 355.872 98.4225 355.998 98.6829 356.249C98.948 356.495 99.0806 356.793 99.0806 357.143C99.0806 357.489 98.948 357.787 98.6829 358.038C98.4225 358.285 98.1076 358.408 97.7383 358.408ZM109.821 362.754L107.896 363.095C107.816 362.849 107.688 362.615 107.513 362.392C107.342 362.17 107.11 361.987 106.817 361.845C106.523 361.703 106.156 361.632 105.716 361.632C105.115 361.632 104.613 361.767 104.21 362.037C103.808 362.302 103.607 362.645 103.607 363.067C103.607 363.431 103.741 363.725 104.011 363.947C104.281 364.17 104.717 364.352 105.318 364.494L107.051 364.892C108.055 365.124 108.803 365.482 109.295 365.964C109.788 366.447 110.034 367.075 110.034 367.847C110.034 368.5 109.845 369.082 109.466 369.594C109.092 370.1 108.569 370.498 107.896 370.787C107.229 371.076 106.455 371.22 105.574 371.22C104.352 371.22 103.356 370.96 102.584 370.439C101.812 369.913 101.339 369.168 101.163 368.202L103.216 367.889C103.344 368.424 103.607 368.829 104.004 369.104C104.402 369.374 104.92 369.509 105.56 369.509C106.256 369.509 106.812 369.364 107.229 369.075C107.645 368.782 107.854 368.424 107.854 368.003C107.854 367.662 107.726 367.375 107.47 367.143C107.219 366.911 106.833 366.736 106.312 366.618L104.466 366.213C103.448 365.981 102.695 365.612 102.207 365.105C101.724 364.598 101.483 363.957 101.483 363.18C101.483 362.536 101.663 361.973 102.023 361.49C102.383 361.007 102.88 360.631 103.514 360.361C104.149 360.086 104.875 359.949 105.695 359.949C106.874 359.949 107.802 360.205 108.479 360.716C109.156 361.223 109.603 361.902 109.821 362.754ZM112.369 371V360.091H114.493V371H112.369ZM113.441 358.408C113.072 358.408 112.755 358.285 112.49 358.038C112.229 357.787 112.099 357.489 112.099 357.143C112.099 356.793 112.229 356.495 112.49 356.249C112.755 355.998 113.072 355.872 113.441 355.872C113.811 355.872 114.126 355.998 114.386 356.249C114.651 356.495 114.784 356.793 114.784 357.143C114.784 357.489 114.651 357.787 114.386 358.038C114.126 358.285 113.811 358.408 113.441 358.408ZM121.945 371.22C120.922 371.22 120.029 370.986 119.267 370.517C118.505 370.048 117.913 369.393 117.491 368.55C117.07 367.707 116.859 366.722 116.859 365.595C116.859 364.464 117.07 363.474 117.491 362.626C117.913 361.779 118.505 361.121 119.267 360.652C120.029 360.183 120.922 359.949 121.945 359.949C122.967 359.949 123.86 360.183 124.622 360.652C125.384 361.121 125.976 361.779 126.398 362.626C126.819 363.474 127.03 364.464 127.03 365.595C127.03 366.722 126.819 367.707 126.398 368.55C125.976 369.393 125.384 370.048 124.622 370.517C123.86 370.986 122.967 371.22 121.945 371.22ZM121.952 369.438C122.615 369.438 123.164 369.262 123.599 368.912C124.035 368.562 124.357 368.095 124.565 367.513C124.778 366.93 124.885 366.289 124.885 365.588C124.885 364.892 124.778 364.253 124.565 363.67C124.357 363.083 124.035 362.612 123.599 362.257C123.164 361.902 122.615 361.724 121.952 361.724C121.284 361.724 120.73 361.902 120.29 362.257C119.854 362.612 119.53 363.083 119.317 363.67C119.108 364.253 119.004 364.892 119.004 365.588C119.004 366.289 119.108 366.93 119.317 367.513C119.53 368.095 119.854 368.562 120.29 368.912C120.73 369.262 121.284 369.438 121.952 369.438ZM131.524 364.523V371H129.4V360.091H131.439V361.866H131.574C131.824 361.289 132.217 360.825 132.752 360.474C133.292 360.124 133.972 359.949 134.791 359.949C135.534 359.949 136.185 360.105 136.744 360.418C137.303 360.725 137.736 361.185 138.044 361.795C138.351 362.406 138.505 363.161 138.505 364.061V371H136.382V364.317C136.382 363.526 136.176 362.908 135.764 362.463C135.352 362.013 134.786 361.788 134.066 361.788C133.574 361.788 133.136 361.895 132.752 362.108C132.374 362.321 132.073 362.634 131.85 363.045C131.633 363.453 131.524 363.945 131.524 364.523Z" fill="black"/>
<path d="M167.004 371V356.455H172.189C173.316 356.455 174.251 356.649 174.994 357.037C175.742 357.425 176.301 357.963 176.67 358.649C177.04 359.331 177.224 360.119 177.224 361.014C177.224 361.904 177.037 362.688 176.663 363.365C176.294 364.037 175.735 364.561 174.987 364.935C174.244 365.309 173.309 365.496 172.182 365.496H168.254V363.607H171.983C172.693 363.607 173.271 363.505 173.716 363.301C174.166 363.098 174.495 362.802 174.703 362.413C174.911 362.025 175.016 361.559 175.016 361.014C175.016 360.465 174.909 359.989 174.696 359.587C174.488 359.184 174.159 358.876 173.709 358.663C173.264 358.446 172.679 358.337 171.955 358.337H169.199V371H167.004ZM174.185 364.438L177.778 371H175.278L171.756 364.438H174.185ZM184.289 371.22C183.215 371.22 182.289 370.991 181.512 370.531C180.741 370.067 180.144 369.416 179.723 368.578C179.306 367.735 179.098 366.748 179.098 365.616C179.098 364.499 179.306 363.514 179.723 362.662C180.144 361.81 180.731 361.144 181.484 360.666C182.242 360.188 183.127 359.949 184.14 359.949C184.756 359.949 185.352 360.051 185.93 360.254C186.508 360.458 187.026 360.777 187.485 361.213C187.945 361.649 188.307 362.214 188.572 362.911C188.837 363.602 188.97 364.442 188.97 365.432V366.185H180.298V364.594H186.889C186.889 364.035 186.775 363.54 186.548 363.109C186.321 362.674 186.001 362.33 185.589 362.08C185.182 361.829 184.704 361.703 184.154 361.703C183.558 361.703 183.037 361.85 182.592 362.143C182.152 362.432 181.811 362.811 181.569 363.28C181.333 363.744 181.214 364.248 181.214 364.793V366.036C181.214 366.765 181.342 367.385 181.598 367.896C181.858 368.408 182.22 368.798 182.684 369.068C183.148 369.333 183.69 369.466 184.311 369.466C184.713 369.466 185.08 369.409 185.412 369.295C185.743 369.177 186.029 369.002 186.271 368.77C186.512 368.538 186.697 368.251 186.825 367.911L188.835 368.273C188.674 368.865 188.385 369.383 187.968 369.828C187.556 370.268 187.038 370.612 186.413 370.858C185.793 371.099 185.085 371.22 184.289 371.22ZM195.921 371.22C194.865 371.22 193.956 370.981 193.194 370.503C192.436 370.02 191.854 369.355 191.447 368.507C191.04 367.66 190.836 366.689 190.836 365.595C190.836 364.487 191.044 363.509 191.461 362.662C191.878 361.81 192.465 361.144 193.222 360.666C193.98 360.188 194.872 359.949 195.9 359.949C196.728 359.949 197.467 360.103 198.116 360.411C198.764 360.714 199.288 361.14 199.685 361.689C200.088 362.238 200.327 362.88 200.403 363.614H198.336C198.222 363.102 197.962 362.662 197.555 362.293C197.152 361.923 196.612 361.739 195.935 361.739C195.344 361.739 194.825 361.895 194.38 362.207C193.94 362.515 193.596 362.955 193.35 363.528C193.104 364.097 192.981 364.769 192.981 365.545C192.981 366.341 193.102 367.027 193.343 367.605C193.585 368.183 193.925 368.63 194.366 368.947C194.811 369.265 195.334 369.423 195.935 369.423C196.338 369.423 196.702 369.35 197.029 369.203C197.361 369.052 197.638 368.836 197.86 368.557C198.087 368.277 198.246 367.941 198.336 367.548H200.403C200.327 368.254 200.097 368.884 199.714 369.438C199.33 369.991 198.817 370.427 198.173 370.744C197.533 371.062 196.783 371.22 195.921 371.22ZM205.848 371.241C205.157 371.241 204.532 371.114 203.973 370.858C203.415 370.598 202.972 370.221 202.645 369.729C202.323 369.236 202.162 368.633 202.162 367.918C202.162 367.302 202.281 366.795 202.517 366.398C202.754 366 203.074 365.685 203.476 365.453C203.879 365.221 204.328 365.046 204.826 364.928C205.323 364.809 205.829 364.719 206.346 364.658C206.999 364.582 207.529 364.52 207.936 364.473C208.344 364.421 208.64 364.338 208.824 364.224C209.009 364.111 209.101 363.926 209.101 363.67V363.621C209.101 363 208.926 362.52 208.576 362.179C208.23 361.838 207.714 361.668 207.027 361.668C206.312 361.668 205.749 361.826 205.337 362.143C204.93 362.456 204.648 362.804 204.492 363.188L202.496 362.733C202.733 362.07 203.078 361.535 203.533 361.128C203.992 360.716 204.52 360.418 205.117 360.233C205.713 360.044 206.341 359.949 206.999 359.949C207.435 359.949 207.896 360.001 208.384 360.105C208.876 360.205 209.336 360.389 209.762 360.659C210.193 360.929 210.545 361.315 210.82 361.817C211.095 362.314 211.232 362.96 211.232 363.756V371H209.158V369.509H209.073C208.935 369.783 208.73 370.053 208.455 370.318C208.18 370.583 207.828 370.804 207.397 370.979C206.966 371.154 206.45 371.241 205.848 371.241ZM206.31 369.537C206.897 369.537 207.399 369.421 207.816 369.189C208.237 368.957 208.557 368.654 208.775 368.28C208.997 367.901 209.108 367.496 209.108 367.065V365.659C209.033 365.735 208.886 365.806 208.668 365.872C208.455 365.934 208.211 365.988 207.936 366.036C207.662 366.078 207.394 366.118 207.134 366.156C206.873 366.189 206.656 366.218 206.48 366.241C206.069 366.294 205.692 366.381 205.351 366.504C205.015 366.627 204.745 366.805 204.542 367.037C204.343 367.264 204.243 367.567 204.243 367.946C204.243 368.472 204.437 368.869 204.826 369.139C205.214 369.404 205.709 369.537 206.31 369.537ZM216.184 356.455V371H214.06V356.455H216.184ZM221.164 356.455V371H219.041V356.455H221.164Z" fill="black"/>
<rect x="326" y="233" width="47" height="89" rx="8" fill="#785EF0"/>
<rect x="425" y="123" width="47" height="199" rx="8" fill="#DC267F"/>
<path d="M291 337H508" stroke="#E4E4E4" stroke-width="4" stroke-linecap="round"/>
<path d="M307.672 371V356.455H312.857C313.989 356.455 314.926 356.661 315.669 357.072C316.413 357.484 316.969 358.048 317.338 358.763C317.708 359.473 317.892 360.273 317.892 361.163C317.892 362.058 317.705 362.863 317.331 363.578C316.962 364.288 316.403 364.852 315.655 365.268C314.912 365.68 313.977 365.886 312.85 365.886H309.284V364.026H312.651C313.366 364.026 313.946 363.902 314.391 363.656C314.836 363.405 315.163 363.064 315.371 362.634C315.579 362.203 315.684 361.713 315.684 361.163C315.684 360.614 315.579 360.126 315.371 359.7C315.163 359.274 314.834 358.94 314.384 358.699C313.939 358.457 313.352 358.337 312.623 358.337H309.867V371H307.672ZM320.295 371V360.091H322.347V361.824H322.461C322.66 361.237 323.01 360.775 323.512 360.439C324.019 360.098 324.592 359.928 325.231 359.928C325.363 359.928 325.52 359.932 325.7 359.942C325.884 359.951 326.029 359.963 326.133 359.977V362.009C326.048 361.985 325.896 361.959 325.678 361.93C325.46 361.897 325.243 361.881 325.025 361.881C324.523 361.881 324.076 361.987 323.683 362.2C323.294 362.409 322.987 362.7 322.759 363.074C322.532 363.443 322.418 363.865 322.418 364.338V371H320.295ZM332.282 371.22C331.207 371.22 330.281 370.991 329.505 370.531C328.733 370.067 328.136 369.416 327.715 368.578C327.298 367.735 327.09 366.748 327.09 365.616C327.09 364.499 327.298 363.514 327.715 362.662C328.136 361.81 328.723 361.144 329.476 360.666C330.234 360.188 331.119 359.949 332.132 359.949C332.748 359.949 333.345 360.051 333.922 360.254C334.5 360.458 335.018 360.777 335.478 361.213C335.937 361.649 336.299 362.214 336.564 362.911C336.829 363.602 336.962 364.442 336.962 365.432V366.185H328.29V364.594H334.881C334.881 364.035 334.767 363.54 334.54 363.109C334.313 362.674 333.993 362.33 333.581 362.08C333.174 361.829 332.696 361.703 332.147 361.703C331.55 361.703 331.029 361.85 330.584 362.143C330.144 362.432 329.803 362.811 329.561 363.28C329.325 363.744 329.206 364.248 329.206 364.793V366.036C329.206 366.765 329.334 367.385 329.59 367.896C329.85 368.408 330.212 368.798 330.676 369.068C331.141 369.333 331.683 369.466 332.303 369.466C332.705 369.466 333.072 369.409 333.404 369.295C333.735 369.177 334.022 369.002 334.263 368.77C334.505 368.538 334.689 368.251 334.817 367.911L336.827 368.273C336.666 368.865 336.377 369.383 335.961 369.828C335.549 370.268 335.03 370.612 334.405 370.858C333.785 371.099 333.077 371.22 332.282 371.22ZM343.913 371.22C342.857 371.22 341.948 370.981 341.186 370.503C340.429 370.02 339.846 369.355 339.439 368.507C339.032 367.66 338.828 366.689 338.828 365.595C338.828 364.487 339.036 363.509 339.453 362.662C339.87 361.81 340.457 361.144 341.214 360.666C341.972 360.188 342.865 359.949 343.892 359.949C344.721 359.949 345.459 360.103 346.108 360.411C346.757 360.714 347.28 361.14 347.678 361.689C348.08 362.238 348.319 362.88 348.395 363.614H346.328C346.214 363.102 345.954 362.662 345.547 362.293C345.144 361.923 344.605 361.739 343.928 361.739C343.336 361.739 342.817 361.895 342.372 362.207C341.932 362.515 341.589 362.955 341.342 363.528C341.096 364.097 340.973 364.769 340.973 365.545C340.973 366.341 341.094 367.027 341.335 367.605C341.577 368.183 341.918 368.63 342.358 368.947C342.803 369.265 343.326 369.423 343.928 369.423C344.33 369.423 344.695 369.35 345.021 369.203C345.353 369.052 345.63 368.836 345.852 368.557C346.08 368.277 346.238 367.941 346.328 367.548H348.395C348.319 368.254 348.089 368.884 347.706 369.438C347.322 369.991 346.809 370.427 346.165 370.744C345.526 371.062 344.775 371.22 343.913 371.22ZM350.666 371V360.091H352.789V371H350.666ZM351.738 358.408C351.369 358.408 351.052 358.285 350.787 358.038C350.526 357.787 350.396 357.489 350.396 357.143C350.396 356.793 350.526 356.495 350.787 356.249C351.052 355.998 351.369 355.872 351.738 355.872C352.108 355.872 352.422 355.998 352.683 356.249C352.948 356.495 353.081 356.793 353.081 357.143C353.081 357.489 352.948 357.787 352.683 358.038C352.422 358.285 352.108 358.408 351.738 358.408ZM363.821 362.754L361.896 363.095C361.816 362.849 361.688 362.615 361.513 362.392C361.342 362.17 361.11 361.987 360.817 361.845C360.523 361.703 360.156 361.632 359.716 361.632C359.115 361.632 358.613 361.767 358.21 362.037C357.808 362.302 357.607 362.645 357.607 363.067C357.607 363.431 357.741 363.725 358.011 363.947C358.281 364.17 358.717 364.352 359.318 364.494L361.051 364.892C362.055 365.124 362.803 365.482 363.295 365.964C363.788 366.447 364.034 367.075 364.034 367.847C364.034 368.5 363.845 369.082 363.466 369.594C363.092 370.1 362.569 370.498 361.896 370.787C361.229 371.076 360.455 371.22 359.574 371.22C358.352 371.22 357.356 370.96 356.584 370.439C355.812 369.913 355.339 369.168 355.163 368.202L357.216 367.889C357.344 368.424 357.607 368.829 358.004 369.104C358.402 369.374 358.92 369.509 359.56 369.509C360.256 369.509 360.812 369.364 361.229 369.075C361.645 368.782 361.854 368.424 361.854 368.003C361.854 367.662 361.726 367.375 361.47 367.143C361.219 366.911 360.833 366.736 360.312 366.618L358.466 366.213C357.448 365.981 356.695 365.612 356.207 365.105C355.724 364.598 355.483 363.957 355.483 363.18C355.483 362.536 355.663 361.973 356.023 361.49C356.383 361.007 356.88 360.631 357.514 360.361C358.149 360.086 358.875 359.949 359.695 359.949C360.874 359.949 361.802 360.205 362.479 360.716C363.156 361.223 363.603 361.902 363.821 362.754ZM366.369 371V360.091H368.493V371H366.369ZM367.441 358.408C367.072 358.408 366.755 358.285 366.49 358.038C366.229 357.787 366.099 357.489 366.099 357.143C366.099 356.793 366.229 356.495 366.49 356.249C366.755 355.998 367.072 355.872 367.441 355.872C367.811 355.872 368.126 355.998 368.386 356.249C368.651 356.495 368.784 356.793 368.784 357.143C368.784 357.489 368.651 357.787 368.386 358.038C368.126 358.285 367.811 358.408 367.441 358.408ZM375.945 371.22C374.922 371.22 374.029 370.986 373.267 370.517C372.505 370.048 371.913 369.393 371.491 368.55C371.07 367.707 370.859 366.722 370.859 365.595C370.859 364.464 371.07 363.474 371.491 362.626C371.913 361.779 372.505 361.121 373.267 360.652C374.029 360.183 374.922 359.949 375.945 359.949C376.967 359.949 377.86 360.183 378.622 360.652C379.384 361.121 379.976 361.779 380.398 362.626C380.819 363.474 381.03 364.464 381.03 365.595C381.03 366.722 380.819 367.707 380.398 368.55C379.976 369.393 379.384 370.048 378.622 370.517C377.86 370.986 376.967 371.22 375.945 371.22ZM375.952 369.438C376.615 369.438 377.164 369.262 377.599 368.912C378.035 368.562 378.357 368.095 378.565 367.513C378.778 366.93 378.885 366.289 378.885 365.588C378.885 364.892 378.778 364.253 378.565 363.67C378.357 363.083 378.035 362.612 377.599 362.257C377.164 361.902 376.615 361.724 375.952 361.724C375.284 361.724 374.73 361.902 374.29 362.257C373.854 362.612 373.53 363.083 373.317 363.67C373.108 364.253 373.004 364.892 373.004 365.588C373.004 366.289 373.108 366.93 373.317 367.513C373.53 368.095 373.854 368.562 374.29 368.912C374.73 369.262 375.284 369.438 375.952 369.438ZM385.524 364.523V371H383.4V360.091H385.439V361.866H385.574C385.824 361.289 386.217 360.825 386.752 360.474C387.292 360.124 387.972 359.949 388.791 359.949C389.534 359.949 390.185 360.105 390.744 360.418C391.303 360.725 391.736 361.185 392.044 361.795C392.351 362.406 392.505 363.161 392.505 364.061V371H390.382V364.317C390.382 363.526 390.176 362.908 389.764 362.463C389.352 362.013 388.786 361.788 388.066 361.788C387.574 361.788 387.136 361.895 386.752 362.108C386.374 362.321 386.073 362.634 385.85 363.045C385.633 363.453 385.524 363.945 385.524 364.523Z" fill="black"/>
<path d="M421.004 371V356.455H426.189C427.316 356.455 428.251 356.649 428.994 357.037C429.742 357.425 430.301 357.963 430.67 358.649C431.04 359.331 431.224 360.119 431.224 361.014C431.224 361.904 431.037 362.688 430.663 363.365C430.294 364.037 429.735 364.561 428.987 364.935C428.244 365.309 427.309 365.496 426.182 365.496H422.254V363.607H425.983C426.693 363.607 427.271 363.505 427.716 363.301C428.166 363.098 428.495 362.802 428.703 362.413C428.911 362.025 429.016 361.559 429.016 361.014C429.016 360.465 428.909 359.989 428.696 359.587C428.488 359.184 428.159 358.876 427.709 358.663C427.264 358.446 426.679 358.337 425.955 358.337H423.199V371H421.004ZM428.185 364.438L431.778 371H429.278L425.756 364.438H428.185ZM438.289 371.22C437.215 371.22 436.289 370.991 435.512 370.531C434.741 370.067 434.144 369.416 433.723 368.578C433.306 367.735 433.098 366.748 433.098 365.616C433.098 364.499 433.306 363.514 433.723 362.662C434.144 361.81 434.731 361.144 435.484 360.666C436.242 360.188 437.127 359.949 438.14 359.949C438.756 359.949 439.352 360.051 439.93 360.254C440.508 360.458 441.026 360.777 441.485 361.213C441.945 361.649 442.307 362.214 442.572 362.911C442.837 363.602 442.97 364.442 442.97 365.432V366.185H434.298V364.594H440.889C440.889 364.035 440.775 363.54 440.548 363.109C440.321 362.674 440.001 362.33 439.589 362.08C439.182 361.829 438.704 361.703 438.154 361.703C437.558 361.703 437.037 361.85 436.592 362.143C436.152 362.432 435.811 362.811 435.569 363.28C435.333 363.744 435.214 364.248 435.214 364.793V366.036C435.214 366.765 435.342 367.385 435.598 367.896C435.858 368.408 436.22 368.798 436.684 369.068C437.148 369.333 437.69 369.466 438.311 369.466C438.713 369.466 439.08 369.409 439.412 369.295C439.743 369.177 440.029 369.002 440.271 368.77C440.512 368.538 440.697 368.251 440.825 367.911L442.835 368.273C442.674 368.865 442.385 369.383 441.968 369.828C441.556 370.268 441.038 370.612 440.413 370.858C439.793 371.099 439.085 371.22 438.289 371.22ZM449.921 371.22C448.865 371.22 447.956 370.981 447.194 370.503C446.436 370.02 445.854 369.355 445.447 368.507C445.04 367.66 444.836 366.689 444.836 365.595C444.836 364.487 445.044 363.509 445.461 362.662C445.878 361.81 446.465 361.144 447.222 360.666C447.98 360.188 448.872 359.949 449.9 359.949C450.728 359.949 451.467 360.103 452.116 360.411C452.764 360.714 453.288 361.14 453.685 361.689C454.088 362.238 454.327 362.88 454.403 363.614H452.336C452.222 363.102 451.962 362.662 451.555 362.293C451.152 361.923 450.612 361.739 449.935 361.739C449.344 361.739 448.825 361.895 448.38 362.207C447.94 362.515 447.596 362.955 447.35 363.528C447.104 364.097 446.981 364.769 446.981 365.545C446.981 366.341 447.102 367.027 447.343 367.605C447.585 368.183 447.925 368.63 448.366 368.947C448.811 369.265 449.334 369.423 449.935 369.423C450.338 369.423 450.702 369.35 451.029 369.203C451.361 369.052 451.638 368.836 451.86 368.557C452.087 368.277 452.246 367.941 452.336 367.548H454.403C454.327 368.254 454.097 368.884 453.714 369.438C453.33 369.991 452.817 370.427 452.173 370.744C451.533 371.062 450.783 371.22 449.921 371.22ZM459.848 371.241C459.157 371.241 458.532 371.114 457.973 370.858C457.415 370.598 456.972 370.221 456.645 369.729C456.323 369.236 456.162 368.633 456.162 367.918C456.162 367.302 456.281 366.795 456.517 366.398C456.754 366 457.074 365.685 457.476 365.453C457.879 365.221 458.328 365.046 458.826 364.928C459.323 364.809 459.829 364.719 460.346 364.658C460.999 364.582 461.529 364.52 461.936 364.473C462.344 364.421 462.64 364.338 462.824 364.224C463.009 364.111 463.101 363.926 463.101 363.67V363.621C463.101 363 462.926 362.52 462.576 362.179C462.23 361.838 461.714 361.668 461.027 361.668C460.312 361.668 459.749 361.826 459.337 362.143C458.93 362.456 458.648 362.804 458.492 363.188L456.496 362.733C456.733 362.07 457.078 361.535 457.533 361.128C457.992 360.716 458.52 360.418 459.117 360.233C459.713 360.044 460.341 359.949 460.999 359.949C461.435 359.949 461.896 360.001 462.384 360.105C462.876 360.205 463.336 360.389 463.762 360.659C464.193 360.929 464.545 361.315 464.82 361.817C465.095 362.314 465.232 362.96 465.232 363.756V371H463.158V369.509H463.073C462.935 369.783 462.73 370.053 462.455 370.318C462.18 370.583 461.828 370.804 461.397 370.979C460.966 371.154 460.45 371.241 459.848 371.241ZM460.31 369.537C460.897 369.537 461.399 369.421 461.816 369.189C462.237 368.957 462.557 368.654 462.775 368.28C462.997 367.901 463.108 367.496 463.108 367.065V365.659C463.033 365.735 462.886 365.806 462.668 365.872C462.455 365.934 462.211 365.988 461.936 366.036C461.662 366.078 461.394 366.118 461.134 366.156C460.873 366.189 460.656 366.218 460.48 366.241C460.069 366.294 459.692 366.381 459.351 366.504C459.015 366.627 458.745 366.805 458.542 367.037C458.343 367.264 458.243 367.567 458.243 367.946C458.243 368.472 458.437 368.869 458.826 369.139C459.214 369.404 459.709 369.537 460.31 369.537ZM470.184 356.455V371H468.06V356.455H470.184ZM475.164 356.455V371H473.041V356.455H475.164Z" fill="black"/>
<rect x="580" y="123" width="47" height="199" rx="8" fill="#785EF0"/>
<rect x="679" y="233" width="47" height="89" rx="8" fill="#DC267F"/>
<path d="M545 337H762" stroke="#E4E4E4" stroke-width="4" stroke-linecap="round"/>
<path d="M561.672 371V356.455H566.857C567.989 356.455 568.926 356.661 569.669 357.072C570.413 357.484 570.969 358.048 571.338 358.763C571.708 359.473 571.892 360.273 571.892 361.163C571.892 362.058 571.705 362.863 571.331 363.578C570.962 364.288 570.403 364.852 569.655 365.268C568.912 365.68 567.977 365.886 566.85 365.886H563.284V364.026H566.651C567.366 364.026 567.946 363.902 568.391 363.656C568.836 363.405 569.163 363.064 569.371 362.634C569.579 362.203 569.684 361.713 569.684 361.163C569.684 360.614 569.579 360.126 569.371 359.7C569.163 359.274 568.834 358.94 568.384 358.699C567.939 358.457 567.352 358.337 566.623 358.337H563.867V371H561.672ZM574.295 371V360.091H576.347V361.824H576.461C576.66 361.237 577.01 360.775 577.512 360.439C578.019 360.098 578.592 359.928 579.231 359.928C579.363 359.928 579.52 359.932 579.7 359.942C579.884 359.951 580.029 359.963 580.133 359.977V362.009C580.048 361.985 579.896 361.959 579.678 361.93C579.46 361.897 579.243 361.881 579.025 361.881C578.523 361.881 578.076 361.987 577.683 362.2C577.294 362.409 576.987 362.7 576.759 363.074C576.532 363.443 576.418 363.865 576.418 364.338V371H574.295ZM586.282 371.22C585.207 371.22 584.281 370.991 583.505 370.531C582.733 370.067 582.136 369.416 581.715 368.578C581.298 367.735 581.09 366.748 581.09 365.616C581.09 364.499 581.298 363.514 581.715 362.662C582.136 361.81 582.723 361.144 583.476 360.666C584.234 360.188 585.119 359.949 586.132 359.949C586.748 359.949 587.345 360.051 587.922 360.254C588.5 360.458 589.018 360.777 589.478 361.213C589.937 361.649 590.299 362.214 590.564 362.911C590.829 363.602 590.962 364.442 590.962 365.432V366.185H582.29V364.594H588.881C588.881 364.035 588.767 363.54 588.54 363.109C588.313 362.674 587.993 362.33 587.581 362.08C587.174 361.829 586.696 361.703 586.147 361.703C585.55 361.703 585.029 361.85 584.584 362.143C584.144 362.432 583.803 362.811 583.561 363.28C583.325 363.744 583.206 364.248 583.206 364.793V366.036C583.206 366.765 583.334 367.385 583.59 367.896C583.85 368.408 584.212 368.798 584.676 369.068C585.141 369.333 585.683 369.466 586.303 369.466C586.705 369.466 587.072 369.409 587.404 369.295C587.735 369.177 588.022 369.002 588.263 368.77C588.505 368.538 588.689 368.251 588.817 367.911L590.827 368.273C590.666 368.865 590.377 369.383 589.961 369.828C589.549 370.268 589.03 370.612 588.405 370.858C587.785 371.099 587.077 371.22 586.282 371.22ZM597.913 371.22C596.857 371.22 595.948 370.981 595.186 370.503C594.429 370.02 593.846 369.355 593.439 368.507C593.032 367.66 592.828 366.689 592.828 365.595C592.828 364.487 593.036 363.509 593.453 362.662C593.87 361.81 594.457 361.144 595.214 360.666C595.972 360.188 596.865 359.949 597.892 359.949C598.721 359.949 599.459 360.103 600.108 360.411C600.757 360.714 601.28 361.14 601.678 361.689C602.08 362.238 602.319 362.88 602.395 363.614H600.328C600.214 363.102 599.954 362.662 599.547 362.293C599.144 361.923 598.605 361.739 597.928 361.739C597.336 361.739 596.817 361.895 596.372 362.207C595.932 362.515 595.589 362.955 595.342 363.528C595.096 364.097 594.973 364.769 594.973 365.545C594.973 366.341 595.094 367.027 595.335 367.605C595.577 368.183 595.918 368.63 596.358 368.947C596.803 369.265 597.326 369.423 597.928 369.423C598.33 369.423 598.695 369.35 599.021 369.203C599.353 369.052 599.63 368.836 599.852 368.557C600.08 368.277 600.238 367.941 600.328 367.548H602.395C602.319 368.254 602.089 368.884 601.706 369.438C601.322 369.991 600.809 370.427 600.165 370.744C599.526 371.062 598.775 371.22 597.913 371.22ZM604.666 371V360.091H606.789V371H604.666ZM605.738 358.408C605.369 358.408 605.052 358.285 604.787 358.038C604.526 357.787 604.396 357.489 604.396 357.143C604.396 356.793 604.526 356.495 604.787 356.249C605.052 355.998 605.369 355.872 605.738 355.872C606.108 355.872 606.422 355.998 606.683 356.249C606.948 356.495 607.081 356.793 607.081 357.143C607.081 357.489 606.948 357.787 606.683 358.038C606.422 358.285 606.108 358.408 605.738 358.408ZM617.821 362.754L615.896 363.095C615.816 362.849 615.688 362.615 615.513 362.392C615.342 362.17 615.11 361.987 614.817 361.845C614.523 361.703 614.156 361.632 613.716 361.632C613.115 361.632 612.613 361.767 612.21 362.037C611.808 362.302 611.607 362.645 611.607 363.067C611.607 363.431 611.741 363.725 612.011 363.947C612.281 364.17 612.717 364.352 613.318 364.494L615.051 364.892C616.055 365.124 616.803 365.482 617.295 365.964C617.788 366.447 618.034 367.075 618.034 367.847C618.034 368.5 617.845 369.082 617.466 369.594C617.092 370.1 616.569 370.498 615.896 370.787C615.229 371.076 614.455 371.22 613.574 371.22C612.352 371.22 611.356 370.96 610.584 370.439C609.812 369.913 609.339 369.168 609.163 368.202L611.216 367.889C611.344 368.424 611.607 368.829 612.004 369.104C612.402 369.374 612.92 369.509 613.56 369.509C614.256 369.509 614.812 369.364 615.229 369.075C615.645 368.782 615.854 368.424 615.854 368.003C615.854 367.662 615.726 367.375 615.47 367.143C615.219 366.911 614.833 366.736 614.312 366.618L612.466 366.213C611.448 365.981 610.695 365.612 610.207 365.105C609.724 364.598 609.483 363.957 609.483 363.18C609.483 362.536 609.663 361.973 610.023 361.49C610.383 361.007 610.88 360.631 611.514 360.361C612.149 360.086 612.875 359.949 613.695 359.949C614.874 359.949 615.802 360.205 616.479 360.716C617.156 361.223 617.603 361.902 617.821 362.754ZM620.369 371V360.091H622.493V371H620.369ZM621.441 358.408C621.072 358.408 620.755 358.285 620.49 358.038C620.229 357.787 620.099 357.489 620.099 357.143C620.099 356.793 620.229 356.495 620.49 356.249C620.755 355.998 621.072 355.872 621.441 355.872C621.811 355.872 622.126 355.998 622.386 356.249C622.651 356.495 622.784 356.793 622.784 357.143C622.784 357.489 622.651 357.787 622.386 358.038C622.126 358.285 621.811 358.408 621.441 358.408ZM629.945 371.22C628.922 371.22 628.029 370.986 627.267 370.517C626.505 370.048 625.913 369.393 625.491 368.55C625.07 367.707 624.859 366.722 624.859 365.595C624.859 364.464 625.07 363.474 625.491 362.626C625.913 361.779 626.505 361.121 627.267 360.652C628.029 360.183 628.922 359.949 629.945 359.949C630.967 359.949 631.86 360.183 632.622 360.652C633.384 361.121 633.976 361.779 634.398 362.626C634.819 363.474 635.03 364.464 635.03 365.595C635.03 366.722 634.819 367.707 634.398 368.55C633.976 369.393 633.384 370.048 632.622 370.517C631.86 370.986 630.967 371.22 629.945 371.22ZM629.952 369.438C630.615 369.438 631.164 369.262 631.599 368.912C632.035 368.562 632.357 368.095 632.565 367.513C632.778 366.93 632.885 366.289 632.885 365.588C632.885 364.892 632.778 364.253 632.565 363.67C632.357 363.083 632.035 362.612 631.599 362.257C631.164 361.902 630.615 361.724 629.952 361.724C629.284 361.724 628.73 361.902 628.29 362.257C627.854 362.612 627.53 363.083 627.317 363.67C627.108 364.253 627.004 364.892 627.004 365.588C627.004 366.289 627.108 366.93 627.317 367.513C627.53 368.095 627.854 368.562 628.29 368.912C628.73 369.262 629.284 369.438 629.952 369.438ZM639.524 364.523V371H637.4V360.091H639.439V361.866H639.574C639.824 361.289 640.217 360.825 640.752 360.474C641.292 360.124 641.972 359.949 642.791 359.949C643.534 359.949 644.185 360.105 644.744 360.418C645.303 360.725 645.736 361.185 646.044 361.795C646.351 362.406 646.505 363.161 646.505 364.061V371H644.382V364.317C644.382 363.526 644.176 362.908 643.764 362.463C643.352 362.013 642.786 361.788 642.066 361.788C641.574 361.788 641.136 361.895 640.752 362.108C640.374 362.321 640.073 362.634 639.85 363.045C639.633 363.453 639.524 363.945 639.524 364.523Z" fill="black"/>
<path d="M675.004 371V356.455H680.189C681.316 356.455 682.251 356.649 682.994 357.037C683.742 357.425 684.301 357.963 684.67 358.649C685.04 359.331 685.224 360.119 685.224 361.014C685.224 361.904 685.037 362.688 684.663 363.365C684.294 364.037 683.735 364.561 682.987 364.935C682.244 365.309 681.309 365.496 680.182 365.496H676.254V363.607H679.983C680.693 363.607 681.271 363.505 681.716 363.301C682.166 363.098 682.495 362.802 682.703 362.413C682.911 362.025 683.016 361.559 683.016 361.014C683.016 360.465 682.909 359.989 682.696 359.587C682.488 359.184 682.159 358.876 681.709 358.663C681.264 358.446 680.679 358.337 679.955 358.337H677.199V371H675.004ZM682.185 364.438L685.778 371H683.278L679.756 364.438H682.185ZM692.289 371.22C691.215 371.22 690.289 370.991 689.512 370.531C688.741 370.067 688.144 369.416 687.723 368.578C687.306 367.735 687.098 366.748 687.098 365.616C687.098 364.499 687.306 363.514 687.723 362.662C688.144 361.81 688.731 361.144 689.484 360.666C690.242 360.188 691.127 359.949 692.14 359.949C692.756 359.949 693.352 360.051 693.93 360.254C694.508 360.458 695.026 360.777 695.485 361.213C695.945 361.649 696.307 362.214 696.572 362.911C696.837 363.602 696.97 364.442 696.97 365.432V366.185H688.298V364.594H694.889C694.889 364.035 694.775 363.54 694.548 363.109C694.321 362.674 694.001 362.33 693.589 362.08C693.182 361.829 692.704 361.703 692.154 361.703C691.558 361.703 691.037 361.85 690.592 362.143C690.152 362.432 689.811 362.811 689.569 363.28C689.333 363.744 689.214 364.248 689.214 364.793V366.036C689.214 366.765 689.342 367.385 689.598 367.896C689.858 368.408 690.22 368.798 690.684 369.068C691.148 369.333 691.69 369.466 692.311 369.466C692.713 369.466 693.08 369.409 693.412 369.295C693.743 369.177 694.029 369.002 694.271 368.77C694.512 368.538 694.697 368.251 694.825 367.911L696.835 368.273C696.674 368.865 696.385 369.383 695.968 369.828C695.556 370.268 695.038 370.612 694.413 370.858C693.793 371.099 693.085 371.22 692.289 371.22ZM703.921 371.22C702.865 371.22 701.956 370.981 701.194 370.503C700.436 370.02 699.854 369.355 699.447 368.507C699.04 367.66 698.836 366.689 698.836 365.595C698.836 364.487 699.044 363.509 699.461 362.662C699.878 361.81 700.465 361.144 701.222 360.666C701.98 360.188 702.872 359.949 703.9 359.949C704.728 359.949 705.467 360.103 706.116 360.411C706.764 360.714 707.288 361.14 707.685 361.689C708.088 362.238 708.327 362.88 708.403 363.614H706.336C706.222 363.102 705.962 362.662 705.555 362.293C705.152 361.923 704.612 361.739 703.935 361.739C703.344 361.739 702.825 361.895 702.38 362.207C701.94 362.515 701.596 362.955 701.35 363.528C701.104 364.097 700.981 364.769 700.981 365.545C700.981 366.341 701.102 367.027 701.343 367.605C701.585 368.183 701.925 368.63 702.366 368.947C702.811 369.265 703.334 369.423 703.935 369.423C704.338 369.423 704.702 369.35 705.029 369.203C705.361 369.052 705.638 368.836 705.86 368.557C706.087 368.277 706.246 367.941 706.336 367.548H708.403C708.327 368.254 708.097 368.884 707.714 369.438C707.33 369.991 706.817 370.427 706.173 370.744C705.533 371.062 704.783 371.22 703.921 371.22ZM713.848 371.241C713.157 371.241 712.532 371.114 711.973 370.858C711.415 370.598 710.972 370.221 710.645 369.729C710.323 369.236 710.162 368.633 710.162 367.918C710.162 367.302 710.281 366.795 710.517 366.398C710.754 366 711.074 365.685 711.476 365.453C711.879 365.221 712.328 365.046 712.826 364.928C713.323 364.809 713.829 364.719 714.346 364.658C714.999 364.582 715.529 364.52 715.936 364.473C716.344 364.421 716.64 364.338 716.824 364.224C717.009 364.111 717.101 363.926 717.101 363.67V363.621C717.101 363 716.926 362.52 716.576 362.179C716.23 361.838 715.714 361.668 715.027 361.668C714.312 361.668 713.749 361.826 713.337 362.143C712.93 362.456 712.648 362.804 712.492 363.188L710.496 362.733C710.733 362.07 711.078 361.535 711.533 361.128C711.992 360.716 712.52 360.418 713.117 360.233C713.713 360.044 714.341 359.949 714.999 359.949C715.435 359.949 715.896 360.001 716.384 360.105C716.876 360.205 717.336 360.389 717.762 360.659C718.193 360.929 718.545 361.315 718.82 361.817C719.095 362.314 719.232 362.96 719.232 363.756V371H717.158V369.509H717.073C716.935 369.783 716.73 370.053 716.455 370.318C716.18 370.583 715.828 370.804 715.397 370.979C714.966 371.154 714.45 371.241 713.848 371.241ZM714.31 369.537C714.897 369.537 715.399 369.421 715.816 369.189C716.237 368.957 716.557 368.654 716.775 368.28C716.997 367.901 717.108 367.496 717.108 367.065V365.659C717.033 365.735 716.886 365.806 716.668 365.872C716.455 365.934 716.211 365.988 715.936 366.036C715.662 366.078 715.394 366.118 715.134 366.156C714.873 366.189 714.656 366.218 714.48 366.241C714.069 366.294 713.692 366.381 713.351 366.504C713.015 366.627 712.745 366.805 712.542 367.037C712.343 367.264 712.243 367.567 712.243 367.946C712.243 368.472 712.437 368.869 712.826 369.139C713.214 369.404 713.709 369.537 714.31 369.537ZM724.184 356.455V371H722.06V356.455H724.184ZM729.164 356.455V371H727.041V356.455H729.164Z" fill="black"/>
</svg>
